<?xml version="1.0" encoding="UTF-8"?>
<svg width="45px" height="45px" viewBox="0 0 45 45" version="1.1" xmlns="http://www.w3.org/2000/svg" xmlns:xlink="http://www.w3.org/1999/xlink">
    <!-- Generator: Sketch 49.3 (51167) - http://www.bohemiancoding.com/sketch -->
    <title>Group 16</title>
    <desc>Created with Sketch.</desc>
    <defs></defs>
    <g id="组件" stroke="none" stroke-width="1" fill="none" fill-rule="evenodd">
        <g id="Group-16">
            <path d="M31.6317548,25.3437837 C30.3176683,25.3437837 29.2882933,24.3126779 29.2882933,22.9964279 C29.2882933,21.6935913 30.3176683,20.6767644 31.6317548,20.6767644 C32.9324279,20.6767644 33.953149,21.6935913 33.953149,22.9964279 C33.953149,24.2888798 32.912524,25.3416202 31.6317548,25.3437837" id="Fill-2" fill="#C21C20"></path>
            <path d="M22.4763317,5.24600481 C26.7989279,5.24600481 30.8480625,6.4108125 34.3295048,8.44360096 L38.4253702,5.24687019 C33.877774,2.16177404 28.3890721,0.357447115 22.4763317,0.357447115 C16.5666202,0.359610577 11.0779183,2.16177404 6.53032212,5.24687019 L10.6261875,8.44360096 C14.1054663,6.4108125 18.1576298,5.24600481 22.4763317,5.24600481" id="Fill-4" fill="#231916"></path>
            <path d="M10.626101,36.7078846 L6.52807212,39.8998558 C11.0778317,42.9875481 16.5665337,44.7897115 22.4762452,44.7897115 C28.3889856,44.7897115 33.875524,42.9875481 38.4252837,39.8998558 L34.3294183,36.7078846 C30.847976,38.7380769 26.7988413,39.9028846 22.4762452,39.9028846 C18.1566779,39.9028846 14.1053798,38.7372115 10.626101,36.7078846" id="Fill-6" fill="#231916"></path>
            <path d="M5.14877885,22.5756779 C5.14877885,18.252649 6.31358654,14.202649 8.34507692,10.7225048 L5.15180769,6.62750481 C2.06584615,11.1742356 0.260221154,16.6629375 0.260221154,22.5756779 C0.260221154,28.4862548 2.06584615,33.9749567 5.15180769,38.5216875 L8.34507692,34.424524 C6.31358654,30.9465433 5.14877885,26.8939471 5.14877885,22.5756779" id="Fill-8" fill="#231916"></path>
            <path d="M36.6085817,34.4256923 L39.8048798,38.5215577 C42.889976,33.9748269 44.6925721,28.486125 44.6925721,22.5755481 C44.6925721,16.6628077 42.889976,11.1762692 39.8048798,6.627375 L36.6085817,10.722375 C38.6418029,14.2046827 39.8070433,18.2529519 39.8070433,22.5755481 C39.8070433,26.89425 38.6396394,30.9464135 36.6085817,34.4256923" id="Fill-10" fill="#231916"></path>
            <path d="M15.3179135,33.2360048 C13.0211827,33.2360048 11.0541635,32.6172548 9.30175962,31.3360529 L9.24248077,31.2884567 L9.24248077,31.2118702 L9.24248077,27.3522548 L9.24248077,26.9429279 L9.50685577,27.254899 C10.011375,27.8476875 11.9031058,29.7796587 14.9916635,29.7796587 C17.3749327,29.7796587 17.6310865,28.0289856 17.6310865,27.2726394 C17.6310865,25.7478317 16.0465673,24.8673029 14.2816154,24.0252837 L14.14575,23.9582163 C11.8459904,22.8691298 9.24248077,21.6273029 9.24248077,18.2600913 C9.24248077,15.2450913 11.7784904,12.9587452 15.2776731,12.8280721 C15.4382019,12.821149 15.5926731,12.8181202 15.7471442,12.8181202 C18.7669038,12.8181202 20.2925769,13.9539375 20.5682019,14.1841298 L20.6253173,14.231726 L20.6274808,14.3052837 L20.6274808,17.6049952 L20.6274808,17.9407644 L20.3765192,17.719226 C19.3025769,16.7759567 17.5514712,16.1684567 15.9254135,16.1684567 C15.1803173,16.1684567 14.52825,16.297399 14.038875,16.5301875 C13.3374808,16.8702837 12.9943558,17.4340817 12.9943558,18.2600913 C12.9943558,19.2976875 14.2097885,19.9181683 15.7471442,20.7039375 L16.0058942,20.8376394 C18.0196442,21.871774 21.3942115,23.608601 21.3942115,27.4383606 C21.3942115,29.0635529 20.7092596,30.7281202 19.6521923,31.6856683 C18.538875,32.6856202 16.9997885,33.2360048 15.3179135,33.2360048" id="Fill-12" fill="#231916"></path>
            <path d="M27.3130962,33.3530481 L27.1638173,33.3530481 L23.6732885,33.3530481 L23.5231442,33.3530481 L23.5231442,33.2037692 L23.5231442,14.1912692 L23.5231442,14.0865577 L23.6183365,14.0502115 C23.7511731,13.9974231 26.8903558,12.7755 30.2285769,12.7755 C33.8290096,12.7755 35.6415577,14.1133846 35.6623269,14.1267981 L35.7224712,14.1735288 L35.7224712,14.2483846 L35.7224712,17.6021827 L35.7224712,17.9089615 L35.4697788,17.7159808 C35.1781442,17.4940096 33.582375,16.3863173 30.6543462,16.3292019 C30.5890096,16.3261731 30.5189135,16.3240096 30.4514135,16.3240096 C28.947375,16.3240096 27.8799231,16.6485288 27.3792981,16.8389135 L27.3130962,16.8631442 L27.3130962,16.9336731 L27.3139615,33.2037692 L27.3130962,33.3530481 Z" id="Fill-14" fill="#231916"></path>
        </g>
    </g>
</svg>