<?xml version="1.0" encoding="UTF-8"?>
<svg width="80px" height="80px" viewBox="0 0 80 80" version="1.1" xmlns="http://www.w3.org/2000/svg" xmlns:xlink="http://www.w3.org/1999/xlink">
    <!-- Generator: Sketch 49.3 (51167) - http://www.bohemiancoding.com/sketch -->
    <title>Combined Shape</title>
    <desc>Created with Sketch.</desc>
    <defs></defs>
    <g id="华为俄罗斯pc" stroke="none" stroke-width="1" fill="none" fill-rule="evenodd">
        <g id="6提交订单-状态1" transform="translate(-1035.000000, -305.000000)" fill="#C02A2A">
            <path d="M1070.24076,352.298689 L1060.09171,342.149636 C1058.71333,340.771262 1056.47855,340.771262 1055.10017,342.149636 L1055.03378,342.21603 C1053.65541,343.594404 1053.65541,345.82919 1055.03378,347.207564 L1067.74499,359.918778 C1068.43418,360.607965 1069.33747,360.952559 1070.24076,360.952559 C1071.14405,360.952559 1072.04734,360.607965 1072.73653,359.918778 L1095.5636,337.091709 C1096.94197,335.713334 1096.94197,333.478549 1095.5636,332.100174 L1095.4972,332.033781 C1094.11883,330.655406 1091.88404,330.655406 1090.50567,332.033781 L1070.24076,352.298689 Z M1075,385 C1052.90861,385 1035,367.09139 1035,345 C1035,322.90861 1052.90861,305 1075,305 C1097.09139,305 1115,322.90861 1115,345 C1115,367.09139 1097.09139,385 1075,385 Z" id="Combined-Shape"></path>
        </g>
    </g>
</svg>