<?xml version="1.0" encoding="UTF-8"?>
<svg width="27px" height="27px" viewBox="0 0 27 27" version="1.1" xmlns="http://www.w3.org/2000/svg" xmlns:xlink="http://www.w3.org/1999/xlink">
    <!-- Generator: Sketch 49.3 (51167) - http://www.bohemiancoding.com/sketch -->
    <title>Group 3</title>
    <desc>Created with Sketch.</desc>
    <defs></defs>
    <g id="组件" stroke="none" stroke-width="1" fill="none" fill-rule="evenodd">
        <g id="图标" transform="translate(-49.000000, -186.000000)" fill="#000000">
            <g id="Group-3" transform="translate(49.000000, 186.000000)">
                <path d="M13.5,0 C6.04417097,0 0,6.04458183 0,13.5002647 C0,20.9564146 6.04417097,27 13.5,27 C20.955829,27 27,20.9564458 27,13.5002647 C26.9999689,6.04458186 20.955829,0 13.5,0 M13.5,25.6409025 C6.79487337,25.6409025 1.35909301,20.2052288 1.35909301,13.5002336 C1.35909301,6.79470902 6.79487337,1.35900411 13.5,1.35900411 C20.2051266,1.35900411 25.640907,6.79470902 25.640907,13.5002336 C25.640907,20.2052599 20.2051266,25.6409025 13.5,25.6409025" id="Shape-Copy" fill-rule="nonzero"></path>
                <text id="?" font-family="PingFangSC-Regular, PingFang SC" font-size="20" font-weight="normal">
                    <tspan x="8" y="21">?</tspan>
                </text>
            </g>
        </g>
    </g>
</svg>